# xmcd CD database file
#
# Track frame offsets:
#	150
#	19118
#	41793
#	65467
#	75630
#	116096
#	129470
#	144778
#	158440
#	173484
#	178726
#	191007
#	206996
#
# Disc length: 3685 seconds
#
# Revision: 0
# Processed by: cddbd v1.5.1PL0 Copyright (c) Steve Scherf et al.
# Submitted via: CDex 1.51
#
DISCID=ad0e630d
DTITLE=ICP Orchestra - Oh, My Dog
DYEAR=2001
DGENRE=Jazz
TTITLE0=Wrie down Exactly
TTITLE1=A Close Encounter with Charles's Country Band
TTITLE2=Precise Dimensions and Weight
TTITLE3=A la Russe
TTITLE4=Travel Agent
TTITLE5=Ham on Air
TTITLE6=Hand and checked Luggage
TTITLE7=Oh my Deer!
TTITLE8=Wild Turkey
TTITLE9=Out Back - Chickadee
TTITLE10=Sparkling
TTITLE11=Oh my Dog!
TTITLE12=Happy dreams
EXTD=YEAR: 2001
EXTT0=
EXTT1=
EXTT2=
EXTT3=
EXTT4=
EXTT5=
EXTT6=
EXTT7=
EXTT8=
EXTT9=
EXTT10=
EXTT11=
EXTT12=
PLAYORDER=
